<?xml version="1.0" encoding="UTF-8"?><svg id="Layer_1" xmlns="http://www.w3.org/2000/svg" viewBox="0 0 766.76 766.76"><defs><style>.cls-1{fill:#fff;}.cls-2{fill:#493c39;}</style></defs><rect class="cls-1" width="766.76" height="766.76" rx="12" ry="12"/><path class="cls-2" d="M493.96,97.44h-220.73c-97.16,0-175.92,78.76-175.92,175.92v220.73c0,97.16,78.76,175.92,175.92,175.92h220.73c97.16,0,175.92-78.76,175.92-175.92v-220.73c0-97.16-78.76-175.92-175.92-175.92Zm113.05,415.03c0,55.24-44.78,100.03-100.03,100.03H249.51c-55.24,0-100.03-44.78-100.03-100.03V254.99c0-55.24,44.78-100.03,100.03-100.03H506.98c55.24,0,100.03,44.78,100.03,100.03v257.48Z"/><path class="cls-2" d="M378.24,233.9c-82.75,0-149.83,67.08-149.83,149.83s67.08,149.83,149.83,149.83,149.83-67.08,149.83-149.83-67.08-149.83-149.83-149.83Zm0,256.86c-59.11,0-107.02-47.92-107.02-107.02s47.92-107.02,107.02-107.02,107.02,47.92,107.02,107.02-47.92,107.02-107.02,107.02Z"/><circle class="cls-2" cx="533.43" cy="233.9" r="34.78"/></svg>