<?xml version="1.0" encoding="utf-8"?>
<!-- Generator: Adobe Illustrator 27.0.1, SVG Export Plug-In . SVG Version: 6.00 Build 0)  -->
<svg version="1.1" id="Layer_1" xmlns="http://www.w3.org/2000/svg" xmlns:xlink="http://www.w3.org/1999/xlink" x="0px" y="0px"
	 viewBox="0 0 185.6 44.6" style="enable-background:new 0 0 185.6 44.6;" xml:space="preserve">
<style type="text/css">
	.st0{fill:#F5F9EB;}
</style>
<path class="st0" d="M2.2,32V15h5.7c1.8,0,3.3,0.4,4.5,1.2c1.2,0.8,2.1,1.8,2.7,3.1c0.6,1.3,0.9,2.7,0.9,4.3c0,1.7-0.3,3.2-1,4.5
	c-0.7,1.3-1.6,2.3-2.8,3S9.5,32,7.9,32H2.2z M14.8,23.5c0-1.4-0.3-2.7-0.8-3.8c-0.5-1.1-1.3-2-2.3-2.6c-1-0.6-2.2-1-3.7-1H3.5v14.8
	h4.4c1.5,0,2.7-0.3,3.8-1s1.8-1.5,2.3-2.7C14.5,26.1,14.8,24.8,14.8,23.5z M24.3,32.2c-0.9,0-1.7-0.2-2.4-0.5
	c-0.8-0.4-1.4-0.8-2-1.4c-0.5-0.6-1-1.3-1.3-2.1c-0.3-0.8-0.5-1.6-0.5-2.5c0-1.2,0.3-2.3,0.8-3.2c0.5-1,1.3-1.7,2.2-2.3
	c0.9-0.6,2-0.9,3.1-0.9c1.2,0,2.2,0.3,3.1,0.9c0.9,0.6,1.6,1.4,2.2,2.4c0.5,1,0.8,2,0.8,3.2c0,0.1,0,0.2,0,0.3s0,0.2,0,0.2H19.4
	c0.1,0.9,0.3,1.8,0.8,2.6s1.1,1.4,1.8,1.8c0.7,0.4,1.5,0.6,2.4,0.6c0.9,0,1.7-0.2,2.4-0.7c0.8-0.4,1.3-1,1.6-1.7l1.1,0.3
	c-0.2,0.6-0.6,1.1-1.2,1.6c-0.5,0.5-1.1,0.8-1.8,1.1C25.8,32.1,25.1,32.2,24.3,32.2z M19.3,25.3h9.9c-0.1-1-0.3-1.8-0.8-2.6
	s-1-1.3-1.8-1.8c-0.7-0.4-1.5-0.6-2.4-0.6s-1.7,0.2-2.4,0.6c-0.7,0.4-1.3,1-1.8,1.8S19.4,24.3,19.3,25.3z M31.9,28.4
	c0-0.8,0.2-1.4,0.7-1.9c0.4-0.6,1.1-1,1.8-1.3c0.8-0.3,1.7-0.5,2.7-0.5c0.6,0,1.3,0.1,2,0.2s1.3,0.3,1.8,0.5v-1.2
	c0-1.2-0.3-2.1-1-2.8c-0.7-0.7-1.6-1-2.7-1c-0.6,0-1.3,0.1-1.9,0.4c-0.7,0.3-1.4,0.6-2.1,1.1L32.8,21c0.8-0.5,1.6-1,2.4-1.2
	c0.8-0.3,1.5-0.4,2.3-0.4c1.5,0,2.7,0.4,3.5,1.3c0.9,0.9,1.3,2.1,1.3,3.6v6.2c0,0.2,0,0.3,0.1,0.4c0.1,0.1,0.2,0.2,0.4,0.2v1
	c-0.1,0-0.3,0-0.4,0s-0.2,0-0.2,0c-0.3,0-0.5-0.2-0.7-0.4c-0.2-0.2-0.2-0.4-0.3-0.7v-1c-0.6,0.7-1.3,1.3-2.2,1.7
	c-0.9,0.4-1.8,0.6-2.8,0.6c-0.8,0-1.5-0.2-2.1-0.5c-0.6-0.3-1.1-0.8-1.5-1.4C32.1,29.8,31.9,29.1,31.9,28.4z M40.5,29.4
	c0.2-0.2,0.3-0.4,0.4-0.6c0.1-0.2,0.1-0.4,0.1-0.5v-2.1c-0.6-0.2-1.2-0.4-1.8-0.5s-1.3-0.2-1.9-0.2c-1.2,0-2.3,0.2-3,0.7
	c-0.8,0.5-1.2,1.2-1.2,2c0,0.5,0.1,1,0.4,1.5c0.3,0.4,0.6,0.8,1.1,1.1c0.5,0.3,1.1,0.4,1.7,0.4c0.9,0,1.7-0.2,2.5-0.5
	C39.6,30.4,40.1,30,40.5,29.4z M51.8,20.6c-1.1,0-2.1,0.4-3,1c-0.8,0.6-1.4,1.5-1.8,2.6V32h-1.2V19.5H47v3.1c0.4-0.9,1-1.6,1.7-2.1
	c0.7-0.6,1.5-0.9,2.3-1c0.2,0,0.3,0,0.4,0c0.1,0,0.2,0,0.3,0V20.6z M54.1,14.5h1.2v15c0,0.6,0.1,1,0.4,1.2c0.2,0.2,0.6,0.3,0.9,0.3
	c0.3,0,0.5,0,0.8-0.1s0.5-0.1,0.7-0.2l0.2,1c-0.3,0.1-0.6,0.2-1,0.3c-0.4,0.1-0.7,0.1-1,0.1c-0.7,0-1.2-0.2-1.6-0.6
	c-0.4-0.4-0.6-1-0.6-1.7V14.5z M60.7,36.2c0.3,0,0.5,0,0.7,0c0.2,0,0.4,0,0.5-0.1c0.1,0,0.3-0.2,0.4-0.4c0.2-0.2,0.4-0.6,0.6-1.2
	c0.3-0.6,0.6-1.4,1.1-2.6l-5.6-12.5h1.3l4.9,11.2l4.6-11.2h1.2l-6.8,16.4c-0.1,0.3-0.2,0.5-0.4,0.7c-0.2,0.2-0.4,0.4-0.6,0.5
	c-0.2,0.1-0.5,0.2-0.9,0.2c-0.1,0-0.3,0-0.5,0c-0.2,0-0.3,0-0.6,0V36.2z"/>
<path class="st0" d="M74.3,17.4l-1.1,0c-0.2,0-0.5,0.2-1,0.6l-0.1-0.1c0.3-0.3,0.5-0.5,0.6-0.6c0.1-0.1,0.1-0.3,0.1-0.4v-0.9
	c0-0.1,0-0.3-0.1-0.4c-0.1-0.1-0.3-0.4-0.6-0.6l0.1-0.2c0.5,0.4,0.8,0.6,1,0.6c0.6,0,1.4-0.1,2.5-0.2c1.1-0.2,1.8-0.3,2.1-0.4
	c0.3-0.1,0.5-0.2,0.6-0.2c0-0.1,0.1-0.2,0.1-0.5v-0.4l0.2,0c0,0.1,0,0.2,0,0.3c0,0.1,0,0.2,0,0.2c0,0.1,0,0.1,0,0.2c0,0,0,0.1,0,0.1
	c0,0,0,0,0.1,0.1c0,0,0.1,0,0.1,0c0.1,0,0.2,0,0.3,0c0.1,0,0.3-0.2,0.7-0.7l0.1,0.1c-0.3,0.4-0.5,0.7-0.5,0.8l0.2,0.9v0.2
	c0,0.1,0.2,0.4,0.6,0.9l-0.1,0.1c-0.4-0.5-0.7-0.7-0.8-0.7l-0.3,0c-0.1,0-0.1,0-0.2,0L78,17c-0.1,0.1-0.1,0.1-0.1,0.3
	c0,0.1,0,0.2,0,0.4c0,0.2,0,0.4,0.1,0.6c0.1,0.6,0.3,0.9,0.7,0.9c0.1,0,0.3,0,0.5-0.1l0.1,0.4c-0.2,0-0.3,0.1-0.4,0.1
	c-0.1,0-0.2,0.1-0.2,0.1c-0.1,0-0.1,0.1-0.1,0.2c0,0.1,0,0.1,0,0.2v0.2c0,0.2,0.1,0.3,0.2,0.4c0.1,0.1,0.4,0.1,0.8,0.1v0.3
	c-0.4,0-0.7,0-0.8,0.1c-0.1,0.1-0.2,0.2-0.2,0.3c0,0.2,0,0.4,0,0.8l0.2,5v0.5c0,0.1,0,0.1,0.1,0.3c0.1,0.1,0.2,0.2,0.3,0.2
	c0.1,0,0.4-0.1,0.7-0.2l0.1,0.3c-0.5,0.2-0.8,0.4-0.8,0.6c0,0.1,0,0.1,0,0.1l0.1,0.4c0,0.2,0.2,0.3,0.4,0.3l1.2-0.2
	c0.1-0.1,0.3-0.1,0.4-0.3c0.1-0.1,0.2-0.4,0.3-0.8l0.2,0c-0.1,0.4-0.1,0.6-0.1,0.8c0,0.3,0.1,0.5,0.4,0.5h0.8c0.2,0,0.6-0.3,0.9-1
	c0.4-0.7,0.6-1.1,0.6-1.3s-0.2-0.4-0.6-0.8l0.1-0.1c0.4,0.4,0.6,0.5,0.8,0.5c0.4,0,0.9-0.6,1.4-1.8l0.1,0c-0.2,0.6-0.3,1.1-0.3,1.3
	v2.3c0,0.4-0.2,0.9-0.5,1.5c-0.3,0.6-0.5,1.1-0.5,1.4c0,0.2,0.2,0.4,0.7,0.7l-0.1,0.2c-0.4-0.3-0.6-0.4-0.8-0.4
	c-0.1,0-0.2,0-0.4,0.1c-0.2,0.1-0.3,0.5-0.5,1.1l-0.1,0c0.1-0.3,0.1-0.6,0.1-0.8c0-0.2-0.1-0.4-0.2-0.6c-0.1-0.2-0.2-0.4-0.2-0.5
	c-0.1,0-0.2,0.1-0.3,0.2c-0.1,0.1-0.1,0.3-0.1,0.6v0.2h-0.4c0-0.4-0.1-0.6-0.1-0.8c-0.1-0.1-0.2-0.2-0.5-0.2s-0.7,0-1.4,0
	c-0.7,0-1.3,0.1-1.7,0.2c-0.4,0.1-1,0.4-1.7,0.8c-0.1,0.1-0.2,0.2-0.2,0.3s-0.1,0.4-0.1,0.8l-0.2,0c0-0.2,0.1-0.4,0.1-0.7
	c0-0.3-0.1-0.5-0.4-0.6c-0.1,0-0.4,0.1-0.8,0.3l0-0.1c0.4-0.2,0.6-0.3,0.7-0.3c0.1-0.1,0.1-0.1,0.1-0.2v-0.3c0-0.2,0-0.5,0.1-0.7
	c0,0-0.1-0.1-0.2-0.1l0.2,0.1l0.3-0.3c0.1,0,0.1-0.1,0.1-0.2c0-0.1-0.1-0.3-0.3-0.8l0.1,0c0.1,0.3,0.2,0.6,0.4,0.8
	c0.1-0.1,0.1-0.1,0.1-0.2s0-0.2-0.1-0.3c0-0.1-0.1-0.4-0.1-0.9c0-0.4-0.1-0.8-0.2-1.1c-0.1-0.3-0.3-0.4-0.5-0.4
	c-0.1,0-0.3,0-0.5,0.1l-0.1-0.4c0.3-0.1,0.6-0.1,0.7-0.2c0.1-0.1,0.2-0.2,0.2-0.3v-0.1c0-0.4-0.2-1.3-0.5-2.6
	c-0.3-1.4-0.5-2.4-0.5-3c0,0-0.1-0.2-0.2-0.5c-0.1-0.3-0.2-0.6-0.2-0.9l0-0.9C74.7,17.8,74.6,17.4,74.3,17.4z M87.4,27.8
	c0.5-0.2,0.8-0.5,0.8-0.6c0-0.1-0.1-0.1-0.2-0.2c-0.4-0.3-0.7-0.9-0.7-1.7c0-0.1,0-0.1-0.1-0.2c-0.4-0.3-0.7-0.6-0.8-1
	c-0.1-0.3-0.2-0.6-0.2-0.9c-0.1-0.4-0.1-0.9-0.1-1.4c0-1.8-0.4-2.9-1.2-3.4l1-1.5c0.3,0.2,0.7,0.3,1.2,0.3c0.5,0,1-0.1,1.4-0.2
	c0-0.5,0.3-0.9,0.7-1.1c0.2-0.1,0.5-0.2,0.7-0.2c0.8-0.2,1.3-0.4,1.7-0.6c0.4-0.2,0.8-0.3,1-0.3c0.8,0,1.6,0.3,2.4,0.8
	c0.8,0.5,1.4,1.2,1.7,1.9c0.2,0.4,0.6,0.8,1.3,1.2c0.6,0.4,0.8,0.9,0.8,1.5c0,0.2,0.1,0.5,0.2,0.7c0.1,0.2,0.3,0.3,0.5,0.3
	c0.2,0,0.4,0,0.7-0.1l0.1,0.3c-0.4,0.1-0.6,0.2-0.7,0.3c-0.1,0.1-0.2,0.2-0.2,0.3l0.2,2.5c0,0.5-0.2,1.2-0.5,2.1
	c-0.4,1-0.6,1.7-0.6,1.9c0,0.2,0.1,0.4,0.2,0.5c0.1,0.1,0.3,0.2,0.6,0.4l-0.1,0.2c-0.4-0.2-0.6-0.2-0.8-0.2c-0.1,0-0.2,0-0.3,0.1
	c-0.1,0.1-0.2,0.2-0.4,0.5c-0.2,0.2-0.3,0.4-0.4,0.4c-0.1,0.1-0.2,0.2-0.4,0.4c-0.2,0.2-0.3,0.3-0.4,0.4c-0.1,0.1-0.2,0.2-0.4,0.4
	c-0.2,0.2-0.4,0.4-0.6,0.6c-0.2,0.2-0.4,0.4-0.4,0.5c0,0.1,0.1,0.4,0.2,0.7l-0.2,0.1c-0.1-0.4-0.3-0.6-0.4-0.7
	c-0.1-0.1-0.2-0.2-0.4-0.2h-0.1c-0.2,0-0.4,0.1-0.5,0.2c-0.1,0.1-0.3,0.3-0.4,0.7L93.2,33c0.1-0.3,0.2-0.6,0.2-0.8
	c0-0.2-0.1-0.3-0.3-0.4c-0.2-0.1-0.4-0.2-0.6-0.2c-0.6,0-1.1-0.3-1.3-0.7c0,0-0.1-0.1-0.1-0.2c-0.1-0.2-0.2-0.4-0.3-0.6
	c-0.3,0-0.7-0.2-1.4-0.4c-0.6-0.2-1.1-0.4-1.4-0.5l0.5,0.2c0.1,0,0.2,0,0.3,0c0.1,0,0.2,0,0.3-0.1c0.1-0.1,0.2-0.2,0.2-0.4
	c0-0.2-0.1-0.4-0.4-0.7c-0.3-0.3-0.5-0.4-0.6-0.4c-0.1,0-0.4,0.1-0.8,0.2L87.4,27.8z M89.7,20.5c-0.1,0-0.2,0.1-0.2,0.3v1.1
	c0,0.3,0.1,0.8,0.4,1.4c0.8,2.1,1.3,3.5,1.3,4.1c0,0,0,0.1,0,0.2l0.3,0.3c0.1,0.2,0.3,0.3,0.4,0.3c0.1,0,0.4-0.1,0.7-0.3l0.2,0.3
	c-0.4,0.2-0.6,0.5-0.6,0.6c0,0.1,0,0.2,0,0.2c0,0.1,0.1,0.1,0.1,0.2c0,0,0,0.1,0,0.1c0,0,0,0,0,0.1c0,0,0,0.1,0.1,0.1
	c0.1,0,0.1,0.1,0.2,0.1h0.2c0.2,0,0.3,0.1,0.4,0.2c0.1,0.1,0.2,0.1,0.2,0.1h0.6c0.1,0,0.1,0,0.1,0l0.4-0.2c0,0,0.1-0.1,0.2-0.3
	c0.4-0.8,0.6-1.2,0.7-1.3c0.1-0.1,0.2-0.3,0.2-0.5c0-0.2,0.1-0.4,0.2-0.4c0.1-0.1,0.1-0.3,0.1-0.6c0-0.3,0.1-0.5,0.2-0.6
	c0.1-0.1,0.1-0.2,0.1-0.2V23c0-1-0.3-1.5-0.8-1.5c-0.2,0-0.3,0-0.4,0l0-0.3c0.4-0.1,0.6-0.1,0.7-0.2c0.1-0.1,0.2-0.2,0.2-0.3
	c0,0-0.1-0.1-0.2-0.2c-0.1-0.1-0.1-0.2-0.1-0.4l0-0.3c0-0.1-0.1-0.2-0.2-0.3c-0.1-0.1-0.3-0.5-0.6-1c-0.2-0.5-0.5-0.9-0.7-1.1
	c-0.2,0.1-0.3,0.4-0.3,0.8l-0.5,0c0-0.1,0-0.2,0-0.4c0-0.5-0.3-0.8-0.9-0.8c-0.1,0-0.3,0.1-0.6,0.2c-0.3,0.1-0.5,0.2-0.5,0.2
	c0,0-0.1,0.1-0.1,0.2L91.1,18c-0.1,0.2-0.2,0.4-0.2,0.5c0,0.2,0.2,0.4,0.7,0.6l-0.1,0.2c-0.4-0.2-0.6-0.3-0.8-0.3
	c-0.1,0-0.2,0.1-0.3,0.2c-0.1,0.1-0.2,0.3-0.2,0.5C90,20.2,89.9,20.4,89.7,20.5z M87.8,29l0.3,0.1L87.8,29z M88,29.1
	C88.1,29.1,88.1,29.1,88,29.1L88,29.1z M113,30c-0.5-0.4-0.9-0.6-1.1-0.6h-0.2l0.1,1.2c0.4,0.2,0.7,0.4,0.8,0.8
	c0.1,0.3,0.4,0.5,0.8,0.5c0,0,0.3-0.2,0.7-0.5c0.5-0.4,0.8-0.5,0.9-0.5c-0.1,0.1-0.2,0.3-0.4,0.5c-0.5,0.5-0.8,0.8-0.8,0.8
	c0,0,0,0.1,0,0.2v0c0.1,0.1,0.3,0.2,0.8,0.3l0.2,0c0,0-0.1,0.1-0.3,0.1c-0.2,0-0.3,0-0.4,0.1c-0.1,0-0.1,0-0.1,0.1
	c0,0,0,0.1-0.1,0.1c0,0-0.1,0.1-0.2,0.1c-0.1,0-0.2,0.1-0.3,0.3c-0.1,0.1-0.1,0.3-0.2,0.4c0,0.3-0.1,0.5-0.2,0.5
	c-0.1,0-0.4-0.2-0.6-0.5c-0.3-0.3-0.5-0.6-0.7-0.9l-0.6,0.3c-0.2,0.1-0.3,0.8-0.3,2.2c0,0.2-0.1,0.3-0.2,0.3c0-0.5-0.2-1.1-0.5-1.6
	c-0.3-0.5-0.7-1-1.1-1.3c-0.4-0.3-0.7-0.5-0.9-0.5c-0.2,0-0.6,0-1.2,0l-0.4,0.2c0,0-0.2,0.1-0.5,0.4c-0.3,0.2-0.5,0.4-0.6,0.4
	l0.1-0.1h0c0,0-0.2-0.1-0.4-0.3c-0.3-0.2-0.4-0.4-0.5-0.4l-1.7,0.1c-0.2,0.2-0.6,0.3-1.1,0.4c-0.1,0.2-0.4,0.4-0.8,0.4
	c-0.4,0.1-0.9,0.2-1.4,0.3c-0.5,0.1-0.8,0.1-1,0.2C98.6,34,98.5,34,98.5,34s-0.1,0-0.1,0c0.5-0.3,0.8-0.5,1-0.8l0.4-0.6
	c0.1-0.1,0.1-0.2,0.1-0.5c0-0.2,0.1-0.4,0.1-0.4c0,0.3,0,0.5,0,0.7c0,0.1,0,0.2,0,0.3v-0.2c0-0.5,0.2-0.8,0.5-0.8
	c0-0.6,0.3-0.9,0.9-1.1l-0.3-1.9c0-0.1-0.2-0.3-0.6-0.6l0.1-0.4c0.2,0.1,0.4,0.1,0.4,0.1c0.1,0,0.3-0.2,0.6-0.6
	c0.2-0.4,0.4-0.7,0.6-0.8c0-0.2,0-0.4,0-0.7l0.1-1.6c0-0.1-0.1-0.2-0.4-0.4c-0.2-0.2-0.3-0.3-0.4-0.4v0c0.3,0.1,0.6,0.2,0.7,0.2
	c0.2,0,0.3-0.2,0.5-0.5c0.2-0.4,0.3-0.6,0.3-0.7c0-0.1-0.1-0.3-0.3-0.5c-0.2-0.2-0.3-0.4-0.3-0.5c0.4,0.2,0.6,0.4,0.7,0.4
	c0.1,0,0.2-0.1,0.3-0.2c0-0.1,0-0.2,0-0.5c0-0.3,0.1-0.7,0.4-1.4c0.3-0.7,0.4-1.2,0.4-1.6l0-0.3c0,0-0.1-0.2-0.4-0.4l0.1-0.3
	c0.2,0.1,0.4,0.2,0.4,0.2c0.3,0,0.9-0.5,1.8-1.5c0.4-0.4,0.7-0.7,0.8-0.8c0-0.2,0.1-0.4,0.2-0.7h0.3c0,0.1,0,0.2,0,0.5
	c0,0.2,0,0.4,0.1,0.7c0.1,0.3,0.3,0.7,0.6,1.3c0.3,0.6,0.6,1.1,0.8,1.5c0.6,1.1,1,2.2,1.2,3.3c0.1,0.6,0.2,1.1,0.4,1.3
	c0.2,0.3,0.3,0.5,0.4,0.6c0.2,0.3,0.4,0.7,0.4,1.2l0,0.9v0.8c0.5,0.7,0.8,1.5,0.9,2.4c0,0.2,0.2,0.5,0.6,0.8
	C113,29.7,113,29.8,113,30L113,30z M107.5,30.7l0.1,0l0.4,0l0.7-0.7l-0.1-2.1c-0.3-0.2-0.5-0.5-0.6-0.9c-0.1-0.4-0.2-0.7-0.2-0.9
	c0-0.2,0-0.3,0-0.4c0,0,0-0.1,0-0.1l-0.4,0.5c-0.1,0.1-0.1,0.2-0.1,0.2c0,0.1,0,0.2,0.1,0.4c0.1,0.2,0.1,0.3,0.1,0.4s0,0.2-0.1,0.3
	c-0.2-0.4-0.4-0.6-0.5-0.7c-0.1-0.1-0.2-0.1-0.4-0.1h-2.6l0.2,0.6c0,0.1,0.2,0.3,0.5,0.5c0.3,0.2,0.4,0.4,0.5,0.5
	c-0.3-0.1-0.6-0.2-0.7-0.2c-0.1,0-0.3,0-0.4,0.1l-0.2,0.3v2.3l0.9,0l0.7,0.1c0,0,0.1,0,0.3-0.1c0.2-0.1,0.3-0.1,0.4-0.1
	c0.1,0,0.2,0,0.2,0c-0.3,0.2-0.5,0.3-0.6,0.4c-0.1,0.1-0.2,0.2-0.2,0.3v0.3l0,0.1c0,0.1,0.1,0.2,0.2,0.2c0.3,0,0.4,0.2,0.5,0.4
	c-0.4-0.1-0.6-0.2-0.7-0.2c-0.1,0-0.1,0.1-0.1,0.2c0,0.1,0.2,0.4,0.5,0.8c0.3-0.3,0.5-0.5,0.5-0.7c0.1-0.2,0.2-0.4,0.4-0.8
	c0.2-0.3,0.3-0.5,0.3-0.6s-0.1-0.2-0.2-0.4c-0.1-0.2-0.2-0.3-0.2-0.4c0-0.1,0-0.2,0.1-0.2C107.1,30.4,107.3,30.7,107.5,30.7z
	 M106,22.8l-0.7-0.1c-0.2,0-0.3,0.1-0.5,0.3c-0.3,0.4-0.4,0.7-0.4,0.9s0,0.4,0,0.5l0.5,0.2c0.5,0,0.9-0.1,1.2-0.2
	c0.3-0.1,0.5-0.2,0.7-0.2l0.4-0.1c-0.2-0.5-0.3-0.8-0.3-1.1c0-0.2-0.1-0.9-0.3-2c-0.2-1.1-0.4-1.8-0.5-2.2l-1,2.3v0.2
	c0,0,0.1,0.2,0.1,0.5V22c0,0.2,0.2,0.4,0.6,0.5C106,22.6,106.1,22.7,106,22.8C106.1,22.8,106.1,22.8,106,22.8z M122.9,31.9
	c-0.1,0-0.3,0-0.6,0c-0.6,0-1.1,0.5-1.3,1.5l-0.2,0c0.1-0.6,0.2-0.9,0.2-1c0-0.1,0-0.2-0.1-0.4c-0.1-0.2-0.2-0.6-0.3-1.3
	c-0.1-0.6-0.2-1.2-0.4-1.6c-0.1-0.1-0.2-0.1-0.6-0.1c0,0,0,0,0,0l0.9-0.2l0.3,1.2l0,0c0,0,0.1,0,0.2-0.1c0.5-0.6,0.8-1.2,0.8-2
	c0-0.4-0.1-1.1-0.4-2.1c-0.1-0.2-0.4-0.5-0.9-0.9l0.1-0.1c0.4,0.3,0.8,0.5,0.9,0.6c0.2,0,0.3-0.2,0.3-0.4l0-0.7c0-0.3,0-0.5-0.2-0.8
	c-0.1-0.2-0.3-0.4-0.6-0.4c-0.1,0-0.3,0-0.6,0.1l-0.1-0.3c0.4-0.1,0.6-0.2,0.7-0.3c0.1-0.1,0.1-0.3,0.1-0.6c0-0.3,0-0.5,0-0.8
	c0-0.2-0.1-0.5-0.1-0.8c-0.1-0.6-0.4-0.8-0.9-0.8c-0.2,0-0.3,0-0.4,0l-0.1-0.6c0.5-0.1,0.8-0.4,0.8-0.7c0-0.5-0.1-0.8-0.2-0.8
	c-0.1,0-0.2,0-0.2,0.1c-0.1,0.1-0.1,0.2-0.1,0.3c0,0.1,0,0.3,0.1,0.7l-0.3,0.1c-0.1-0.3-0.2-0.6-0.3-0.7c-0.1-0.1-0.2-0.2-0.5-0.2
	c-0.2,0-0.6,0.1-1,0.2c-0.4,0.1-0.7,0.3-0.7,0.5c0,0.2-0.2,0.5-0.4,0.8c-0.2,0.3-0.4,0.5-0.4,0.7c0,0.1,0,0.3-0.1,0.4
	c-0.1,0.1-0.2,0.2-0.3,0.2c-0.3,0.1-0.4,0.2-0.4,0.4c0,0.2-0.1,0.3-0.1,0.4c-0.1,0.1-0.1,0.2-0.2,0.2c-0.2,0.2-0.4,0.6-0.6,1.4
	l-0.1,0c0.1-0.5,0.2-0.9,0.2-1.1l-0.2-2c0-0.5,0.1-1,0.2-1.4l0-0.1l-0.3-0.9l0-4.2c0-0.2-0.2-0.5-0.6-1l0.1-0.1
	c0.4,0.4,0.7,0.7,0.9,0.7h0c0.1,0,0.2,0,0.3-0.1c0.1-0.1,0.2-0.3,0.4-0.7l0.1,0.1c-0.2,0.4-0.3,0.7-0.3,0.8c0,0.1,0,0.2,0.1,0.2
	l0.4,0.6c0.1,0.1,0.2,0.1,0.4,0.1c0.1,0,0.4,0.1,0.7,0.3c0.4,0.2,0.6,0.3,0.8,0.3c0.2,0,0.3,0,0.5,0c0.1,0,0.4-0.1,0.6-0.1
	c0.3,0,0.6-0.1,0.9-0.1c0.9-0.1,1.9-0.1,3-0.1l2.5,0c0.2,0,0.4,0.1,0.8,0.2c0.3,0.2,0.6,0.2,0.8,0.2c0.2,0,0.4-0.1,0.8-0.3
	c0.3-0.2,0.5-0.4,0.7-0.4c0.1-0.1,0.2-0.1,0.3-0.3s0.1-0.4,0.1-0.8l0.2,0l0,0.4c0,0.4,0.1,0.6,0.3,0.7l1.1,0.7
	c0.1,0.1,0.2,0.1,0.4,0.1c0.1,0,0.4-0.1,0.8-0.3l0.1,0.2c-0.4,0.1-0.6,0.3-0.7,0.4c-0.1,0.1-0.2,0.2-0.2,0.4
	c-0.2,0.9-0.3,1.5-0.3,1.9c0,0.4,0,0.6,0,0.7c0,0.1,0.2,0.3,0.4,0.5c0.2,0.2,0.5,0.4,0.9,0.5l-0.1,0.2c-0.5-0.2-0.8-0.3-1-0.3
	c-0.4,0-0.6,0.1-0.6,0.4c0,0.1,0,0.3,0.1,0.6h-0.1c-0.1-0.5-0.1-0.8-0.1-0.8c0,0-0.1-0.1-0.1-0.1h-0.1c-0.1,0-0.2,0.1-0.3,0.2
	s-0.3,0.3-0.4,0.5l-0.1-0.1c0.3-0.4,0.5-0.7,0.5-0.8c0-0.3-0.3-0.6-0.8-0.8c-0.5-0.2-1-0.3-1.2-0.3c-0.3,0-0.4,0.1-0.6,0.2
	c-0.1,0.1-0.2,0.3-0.4,0.6l-0.2-0.1c0.2-0.4,0.3-0.7,0.3-0.8c0-0.1,0-0.2-0.1-0.3l0,0c-0.1-0.1-0.2-0.1-0.6-0.2
	c-0.3-0.1-0.5-0.1-0.6-0.1s-0.2,0-0.2,0.1l-0.8,0.8c-0.1,0.1-0.1,0.1-0.1,0.2v2.9c0,0.1-0.1,0.3-0.2,0.6c-0.1,0.3-0.2,0.4-0.2,0.6
	c0,0.1,0.1,0.3,0.2,0.5c0.1,0.2,0.2,0.3,0.2,0.4l-0.1,1l0.1,2.2c0,1-0.1,1.7-0.2,2.2c0,0.1,0,0.2,0.1,0.3l0.6,0.7
	c0.1,0.1,0.1,0.2,0.2,0.2c0.1,0,0.4-0.1,0.9-0.2l0.1,0.2c-0.4,0.1-0.6,0.2-0.7,0.3c-0.1,0.1-0.2,0.2-0.2,0.4
	c-0.1,0.6-0.3,1.1-0.7,1.4c-0.1,0.1-0.1,0.2-0.1,0.2l0,0.7l-0.3,0l0-0.6C123.5,32,123.3,31.9,122.9,31.9z M126.2,17.6L126.2,17.6
	L126.2,17.6z M144.8,16c0.1-0.1,0.2-0.3,0.2-0.6v-0.5h0.2c0,0.2,0,0.4,0,0.5c0,0.1,0,0.2,0,0.2c0,0,0,0.1,0,0.1c0,0,0,0.1,0,0.1
	c0,0,0,0,0.1,0.1c0,0,0.1,0,0.1,0c0,0,0.1,0,0.1,0c0.1,0,0.1,0,0.1,0c0,0,0.1,0,0.2,0c0.1,0,0.4-0.1,0.8-0.2
	c0.4-0.2,0.7-0.3,0.9-0.4c0.2-0.1,0.3-0.2,0.3-0.4c0.1-0.1,0.1-0.4,0.2-0.9l0.2,0c0,0.2,0,0.5,0,0.7c0,0.2,0,0.4,0.1,0.5
	c0.1,0.1,0.2,0.1,0.4,0.1c0.2,0,0.5,0,0.8-0.1l0.1,0.2c-0.4,0.1-0.7,0.1-0.9,0.2c-0.1,0.1-0.2,0.1-0.3,0.3l-0.2,0.4
	c0,0.1,0,0.2,0,0.2c0,0.2,0.2,0.5,0.6,0.8l-0.2,0.2c-0.4-0.4-0.7-0.5-0.8-0.5c-0.1,0-0.2,0.1-0.4,0.2c-0.1,0-0.1,0.1-0.1,0.2
	c0,0.1,0.1,0.2,0.2,0.4c0.2,0.2,0.3,0.6,0.4,1.3c0.1,0.7,0.1,1.2,0.1,1.7l-0.1,5.4c0,0.1,0,0.3,0,0.5c0,0.2,0,0.4,0,0.5
	c0,0.1,0,0.2-0.1,0.4c-0.1,0.2-0.2,0.5-0.5,0.7c-0.1,0.1-0.1,0.2-0.1,0.3v1.7c0,0.1,0.2,0.3,0.5,0.6c0.4,0.3,0.6,0.5,0.7,0.5
	c0.1,0,0.2,0,0.3,0c0.1,0,0.4-0.2,1-0.5l0.1,0.1c-0.4,0.2-0.6,0.4-0.7,0.5c-0.1,0.1-0.2,0.2-0.2,0.3v0c0,0,0,0.1,0,0.1
	c0,0.1,0.3,0.3,0.8,0.7l-0.1,0.2c-0.4-0.3-0.7-0.4-0.8-0.4c-0.1,0-0.2,0-0.3,0l-0.3,0.2c-0.1,0.1-0.1,0.2-0.1,0.4l0,0.3l0,0.8h-0.4
	v-1c0-0.3-0.3-0.4-0.8-0.5c-0.5-0.1-1.2-0.2-1.9-0.2c-0.7,0-1.2-0.1-1.4-0.2c-0.2-0.1-0.5-0.2-1-0.5c-0.4-0.2-0.7-0.4-1-0.5l0.1-0.9
	c0.2-0.1,0.6-0.1,1.1-0.1h0.6c0.3,0,0.4-0.1,0.4-0.4c0-0.5,0.1-1.2,0.2-2.2c0.1-1,0.2-1.6,0.2-1.9s0-0.5,0-0.5
	c0-0.1-0.1-0.1-0.2-0.1c-0.1,0-0.4,0-0.7,0c-0.4,0-0.7,0-0.9,0.1c-0.2,0-0.4,0.1-0.5,0.3c-0.1,0.1-0.1,0.4-0.1,0.8h-0.3
	c0-0.4,0-0.7-0.1-0.8c-0.1-0.1-0.2-0.2-0.4-0.2c-0.2,0-0.7-0.1-1.4-0.1c-0.7,0-1.1,0.1-1.1,0.4l-0.1,3.7c0,0.2,0.1,0.5,0.3,0.7
	c0.2,0.3,0.4,0.4,0.6,0.4c0.2,0,0.4-0.3,0.4-0.8v-0.3h0.2c0,0.4,0,0.7,0.1,0.8c0,0.1,0.1,0.2,0.2,0.2l0.3,0.1c0,0,0.1,0,0.2,0
	c0.1,0,0.5-0.1,1-0.4l0,0.1c-0.6,0.2-1,0.5-1.1,0.7l0,0.1c-0.1,0.1-0.1,0.2-0.1,0.3l0.2-0.1l0,0.2c-0.1,0-0.1,0-0.1,0
	c0,0.2,0.2,0.5,0.5,0.8l-0.2,0.2c-0.4-0.5-0.6-0.7-0.9-0.7c-0.2,0-0.6,0.1-1,0.3c-0.4,0.2-0.9,0.4-1.4,0.7c-0.5,0.3-0.8,0.4-1,0.5
	c-0.1,0.1-0.2,0.1-0.3,0.1c-0.1,0.1-0.2,0.5-0.3,1l-0.2,0c0-0.2,0-0.4,0-0.7c0-0.3-0.1-0.4-0.2-0.4c-0.1,0-0.2,0-0.3,0.1
	c-0.1,0.1-0.1,0.2-0.1,0.3v0.3c0,0.1-0.1,0.3-0.2,0.5c-0.1,0.2-0.2,0.5-0.2,1v0.4h-0.1c0-0.7-0.1-1.1-0.2-1.2l-0.1-0.1
	c-0.1-0.1-0.2-0.1-0.3-0.1c-0.1,0-0.4,0-0.8,0.1l0-0.1c0.5-0.1,0.8-0.2,0.9-0.3c0-0.1,0.1-0.1,0.1-0.1c0,0,0.1-0.3,0.2-0.7
	c0.1-0.4,0.2-0.6,0.2-0.7l-0.4-0.7c-0.1-0.1-0.2-0.2-0.3-0.3c-0.1-0.1-0.4-0.1-0.9-0.2l0-0.2c0.3,0.1,0.6,0.1,0.8,0.1
	s0.5-0.1,0.8-0.3c0.3-0.2,0.4-0.4,0.4-0.5v-4c0-0.1-0.1-0.3-0.2-0.6c-0.1-0.3-0.2-0.5-0.2-0.6v-3.6c0-0.1-0.2-0.2-0.7-0.5l0.2-0.5
	l0.4,0.1c0.1,0,0.3-0.1,0.4-0.2c0.1-0.1,0.2-0.2,0.2-0.4l-0.2-2.1c0,0,0-0.1-0.1-0.2l-0.9-0.8c-0.2-0.1-0.4-0.2-0.7-0.2
	c-0.3,0-0.5,0-0.7,0v-0.2c0.7,0,1.1-0.2,1.3-0.4l0.5-0.7c0.2-0.3,0.3-0.7,0.3-1.4h0.1c0,0.1,0,0.4,0,0.7c0,0.3,0.1,0.6,0.2,0.8
	c0.1,0.1,0.6,0.2,1.5,0.3c0.9,0.1,1.4,0.2,1.7,0.2c0.3,0,0.4-0.1,0.5-0.2c0.1-0.1,0.2-0.3,0.4-0.7l0.2,0.1c-0.2,0.4-0.4,0.7-0.4,0.9
	c0,0.4,0.5,0.6,1.5,0.6c0.2,0,0.7-0.1,1.3-0.4l0,0.1c-0.6,0.2-1,0.5-1.1,0.6l0.2,0l-0.1,0.5l-0.5,0c0,0,0,0.1,0,0.1
	c0,0.3,0.2,0.7,0.6,1.3l-0.1,0.1c-0.3-0.4-0.5-0.6-0.6-0.7c-0.1-0.1-0.3-0.2-0.4-0.2l-0.4-0.1h-0.1c-0.2,0-0.3,0.1-0.4,0.4
	c-0.1,0.2-0.2,0.4-0.2,0.6v3.9c0,0.3,0.1,0.4,0.4,0.4h1.9c0.2,0,0.4-0.1,0.7-0.2c0.3-0.1,0.5-0.2,0.7-0.2c0.2,0,0.4,0.1,0.8,0.2
	c0.3,0.1,0.6,0.2,0.7,0.2c0.1,0,0.2,0,0.3-0.1c0.1-0.1,0.1-0.2,0.1-0.3v-4.2c0-0.3-0.6-0.6-1.7-0.8l-0.3-0.9c0.2,0,0.4,0,0.5,0.1
	c0.1,0,0.2,0,0.3-0.1c0.1-0.1,0.1-0.2,0.1-0.4c0-0.2,0-0.4-0.1-0.7l0.3-0.1c0.1,0.4,0.2,0.7,0.3,0.8c0.1,0.1,0.2,0.2,0.4,0.2h0.1
	c0.1,0,0.2-0.1,0.5-0.3C144.3,16.1,144.5,16,144.8,16z M163.2,17.7c-0.3-0.5-0.7-0.8-1-0.8l-3.5,0c-0.1,0-0.2,0.1-0.3,0.4
	c-0.1,0.3-0.1,0.7-0.1,1.1l0.1,0.3c0,0,0,0.1,0.1,0.2c0.1,0.1,0.1,0.4,0.1,0.9l-0.1,1.7c0,0.3,0.1,0.7,0.2,1.1
	c0.1,0.4,0.2,0.6,0.4,0.6c0,0,0.2-0.1,0.5-0.2c0.3-0.1,0.6-0.2,0.9-0.2s0.4,0,0.6,0c0.3,0,0.4-0.1,0.4-0.4v-1.6
	c0-0.1-0.1-0.3-0.2-0.4c-0.1-0.1-0.3-0.2-0.6-0.3l0.1-0.1c0.3,0.2,0.5,0.3,0.7,0.3c0.2,0,0.3,0,0.4-0.1c0.1-0.1,0.2-0.4,0.4-1l0.1,0
	c-0.1,0.5-0.2,0.8-0.2,1s0.1,0.4,0.3,0.6c0.2,0.2,0.4,0.4,0.6,0.4c0.2,0,0.5-0.1,0.9-0.3l0.1,0.2c-0.4,0.2-0.6,0.4-0.7,0.5
	c-0.1,0.1-0.1,0.3-0.1,0.4v0c0,0.1,0.1,0.2,0.3,0.5c0.2,0.3,0.3,0.5,0.3,0.7l0,0.6c0,0.1,0.1,0.2,0.3,0.4c0,0,0.2,0.1,0.6,0.2
	l-0.1,0.3l-0.6-0.2c0,0-0.1,0-0.2,0s-0.2,0.1-0.3,0.2l-0.2,0.3c0,0.1,0,0.1,0,0.2l0,0.5c0,0.6-0.1,1-0.4,1.3
	c-0.2,0.2-0.3,0.6-0.3,1.3h-0.2v-0.2c0-0.5-0.1-0.8-0.3-1.1c-0.5-0.5-0.8-1.4-0.9-2.5c0-0.2-0.1-0.3-0.2-0.3l-1.1,0.2l-0.7,0
	c-0.2,0-0.3,0.2-0.5,0.5c-0.1,0.4-0.2,0.7-0.2,0.9v0.5c0,1.2,0,1.8,0,1.8c0.2,0,0.4,0,0.6-0.1l0.1,0.3c-0.4,0.1-0.6,0.2-0.7,0.3
	c-0.1,0.1-0.1,0.3-0.1,0.5v0.5c0,0.2,0.1,0.4,0.4,0.4h1.8c0.2,0,0.4-0.1,0.5-0.2c0.1-0.1,0.2-0.3,0.3-0.7l0.3,0.1
	c-0.1,0.2-0.1,0.4-0.1,0.6c0,0.3,0.2,0.5,0.7,0.7c0.5,0.2,0.8,0.3,1.1,0.3c0.4,0,0.6-0.1,0.6-0.3l0.1-0.6c0.1-0.6,0.6-0.9,1.7-1
	c0.2,0,0.6-0.3,1.1-0.7l0.1,0.1c-0.5,0.4-0.8,0.8-0.8,1.1c0,0.3-0.1,0.8-0.3,1.6c-0.1,0.8-0.2,1.4-0.3,1.6c-0.1,0.2-0.1,0.4-0.1,0.5
	l0.3,1l-0.3,0.1c-0.3-0.7-0.4-1-0.3-1c-0.1-0.2-0.2-0.3-0.3-0.3c-0.1,0-0.2,0-0.3-0.1c-0.1,0-0.2,0-0.3,0c-0.2,0-0.5,0.2-0.6,0.7
	l-0.2-0.1c0.1-0.3,0.2-0.5,0.2-0.7c0-0.1,0-0.2,0-0.2c0,0,0,0,0,0c0,0,0,0,0,0c-0.2-0.1-0.6-0.2-1.1-0.4c-0.5-0.1-0.7-0.2-0.9-0.3
	c-0.1-0.1-0.2-0.1-0.3-0.1H156c-0.8,0-1.2,0.2-1.3,0.6l-0.4,1l-0.4-0.2l0.5-1.1c0.1-0.3,0.1-0.8,0.1-1.3c0-0.5-0.1-2.2-0.4-5
	c-0.3-2.8-0.4-5-0.4-6.5c0-0.2-0.1-0.3-0.2-0.4c-0.1-0.1-0.3-0.2-0.7-0.3l0.1-0.2c0.5,0.1,0.7,0.2,0.8,0.2c0.1,0,0.1,0,0.1,0
	c0.1,0,0.2-0.1,0.2-0.2l0.3-0.4l0.1-0.3l0-0.1l-0.1-0.4c0-0.1-0.3-0.2-0.6-0.3c-0.4-0.1-0.7-0.2-0.9-0.2c-0.2,0-0.4,0.2-0.7,0.7
	l-0.3-0.1c0.2-0.3,0.2-0.6,0.2-0.7c0-0.1-0.1-0.3-0.2-0.4l-0.6-0.5c-0.2-0.1-0.3-0.2-0.4-0.2c-0.1,0-0.4,0.1-0.9,0.2l-0.1-0.2
	c0.4-0.1,0.7-0.3,0.8-0.4s0.2-0.3,0.2-0.5v-0.3c0-0.1-0.2-0.4-0.6-0.8l0.1-0.1c0.4,0.4,0.7,0.6,0.8,0.6h0c0.1,0,0.2-0.1,0.3-0.2
	c0.1-0.1,0.2-0.4,0.3-0.6l0.1,0c-0.2,0.4-0.3,0.7-0.3,0.8c0,0.1,0,0.2,0.1,0.3c0.1,0.1,0.1,0.1,0.2,0.1h0.1c0.2,0,0.3-0.3,0.5-0.9
	l0.2,0.1c-0.1,0.3-0.1,0.5-0.1,0.7c0,0.2,0.2,0.4,0.6,0.6c0.4,0.2,0.7,0.3,0.9,0.3c0.2,0,0.4-0.2,0.6-0.7l0.2,0.1
	c-0.2,0.4-0.3,0.7-0.3,0.8c0,0.2,0.2,0.4,0.6,0.6c0.4,0.2,0.7,0.3,0.8,0.3c0.2,0,0.3,0,0.4-0.1c0.1-0.1,0.2-0.3,0.3-0.6l0.2,0.1
	c-0.2,0.3-0.2,0.6-0.2,0.7c0-0.1,0.3-0.2,0.8-0.2c0.5-0.1,0.9-0.1,1.1-0.1c0.2,0,0.4-0.1,0.5-0.2c0.1-0.1,0.2-0.3,0.4-0.7l0.2,0.1
	c-0.2,0.4-0.2,0.6-0.2,0.8c0,0.2,0.1,0.3,0.2,0.3c0.1,0.1,0.2,0.2,0.3,0.2h2.6c0,0,0,0,0.1,0l0,0c0.1,0,0.1-0.1,0.3-0.2
	c0.1-0.1,0.3-0.2,0.6-0.3c0.3-0.1,0.6-0.2,0.9-0.3c0.3-0.1,0.6-0.2,0.9-0.5c0.3-0.2,0.6-0.6,0.9-0.9l0.1,0.1
	c-0.4,0.5-0.5,0.9-0.5,1.2v4.1c0,0.3,0.1,0.7,0.4,1.3l-0.1,0c-0.2-0.5-0.5-0.9-0.7-1.2l-1.1-1c-0.1,0-0.1-0.1-0.1-0.1
	c-0.1,0-0.2,0.1-0.3,0.2c-0.1,0.1-0.2,0.3-0.4,0.6l-0.2-0.1c0.2-0.4,0.3-0.7,0.3-0.9c0-0.2-0.2-0.5-0.6-0.9L163.2,17.7z M175.2,32.1
	c-0.1-0.1-0.1-0.2-0.2-0.3c-0.1,0-0.1,0-0.2,0c-0.1,0.1-0.2,0.4-0.3,0.9l-0.2,0c0.1-0.3,0.1-0.5,0.1-0.7c0-0.2-0.1-0.3-0.3-0.4
	c-0.2-0.1-0.4-0.1-0.7-0.1c-0.9,0-1.7,0.2-2.3,0.6c-0.6,0.4-1,0.9-1,1.5l-0.3-0.1l0.2-0.8c0-0.2,0.1-0.4,0.2-0.7
	c0.1-0.3,0.2-0.5,0.2-0.7c0-0.2-0.2-0.4-0.7-0.6l0.1-0.2c0.3,0.2,0.6,0.3,0.7,0.3s0.2-0.1,0.3-0.2l0.2-0.3c0,0,0-0.1,0-0.2
	c0-0.1,0-0.1,0-0.2c-0.3-0.7-0.5-1.8-0.5-3.2l-0.1-0.8l0-0.2c0,0,0-0.1,0-0.2c-0.2-0.4-0.4-0.7-0.4-1.1s0-0.7,0.1-0.9
	c0-0.3,0.1-0.5,0.1-0.6c0-0.2,0.1-0.4,0.2-0.7c0.1-0.3,0.1-0.5,0.2-0.6c0-0.1,0-0.2,0-0.3l-0.1-0.2c-0.1-0.2-0.3-0.3-0.4-0.3
	c-0.2,0-0.4,0-0.7,0.1l0-0.3c0.4-0.1,0.6-0.1,0.8-0.2c0.1-0.1,0.2-0.2,0.2-0.3c0.1-0.4,0.1-0.8,0.1-1.2c0-0.4-0.1-0.8-0.2-1.2
	c-0.1-0.5-0.3-0.7-0.6-0.7c-0.1,0-0.1,0-0.1,0l-1,0.4c-0.3,0.1-0.6,0.4-1.1,0.9l-0.1-0.1c0.5-0.5,0.7-0.9,0.8-1.1
	c0.1-0.3,0.3-0.6,0.7-1c0.4-0.4,0.6-0.7,0.6-0.8c0-0.2-0.1-0.4-0.2-0.8l0.2-0.1c0.1,0.4,0.2,0.6,0.3,0.7c0.1,0.1,0.2,0.2,0.3,0.2
	c0.1,0,0.3,0,0.5,0c0.2,0,0.4,0,0.5,0c0.4,0,0.8,0.1,1.1,0.2c0.4,0.1,0.9,0.3,1.8,0.5c0.8,0.2,1.5,0.4,1.9,0.5
	c0.5,0.1,1.1,0.3,1.7,0.5c1.3,0.4,2.4,0.9,3.5,1.6c0.1,0,0.2,0.1,0.3,0.1c0.1,0,0.4-0.1,0.8-0.4l0.1,0.2c-0.3,0.2-0.5,0.3-0.6,0.4
	c-0.1,0.1-0.1,0.2-0.1,0.3c0,0.1,0.1,0.3,0.4,0.5c0.3,0.2,0.4,0.4,0.5,0.5c0.1,0.1,0.2,0.3,0.5,0.4s0.5,0.2,0.8,0.2s0.5,0,0.8-0.1
	l0,0.1c-0.9,0.1-1.4,0.4-1.4,0.7c0,0.1,0,0.1,0,0.2c0.4,0.7,0.6,1.7,0.6,2.9c0,1.1-0.4,2.2-1.2,3.2c-0.3,0.4-0.7,0.9-1.1,1.4
	c-0.4,0.5-0.8,0.9-1.1,1.4c-0.8,1-1.2,2-1.2,3l-0.2,0l0-0.8c0-0.5,0-0.9-0.1-1.2c-0.1-0.3-0.2-0.4-0.4-0.4l-0.8,0.1
	c-0.1,0-0.5,0.1-1.1,0.2c-0.6,0.1-1.1,0.2-1.3,0.5l-0.1,0.3c0-0.1,0-0.2,0-0.2c0,0-0.2,0.1-0.4,0.4l-0.1-0.1
	C175,32.4,175.2,32.2,175.2,32.1z M173.4,28.6l-0.2,0.8c0,0.3,0.1,0.5,0.2,0.5l0.1,0c0.2,0,0.4-0.1,0.4-0.2c0.1-0.2,0.1-0.5,0.1-0.9
	h0.3c0,0.5,0.1,0.8,0.3,0.9c0.1,0,0.2-0.1,0.4-0.2c0.2-0.1,0.3-0.2,0.4-0.2l0.6,0.1c0.1,0,0.2-0.1,0.3-0.2c0.1-0.2,0.2-0.3,0.4-0.5
	c0.2-0.2,0.4-0.3,0.7-0.4c0.2-0.1,0.4-0.3,0.6-0.4c0.2-0.2,0.3-0.3,0.3-0.5c0-0.1-0.2-0.4-0.5-0.7l0.2-0.3c0.3,0.3,0.5,0.5,0.6,0.5
	s0.3-0.1,0.4-0.2l0.2-0.2c0,0,0.1-0.1,0.1-0.2c0-0.1,0-0.1,0-0.2c0-0.1,0-0.2,0-0.2c0,0,0-0.1,0-0.1c0-0.1,0-0.1,0.1-0.1
	c0.1-0.1,0.3-0.2,0.5-0.3c0.1,0,0.1-0.1,0.2-0.2l0.1-0.7c0-0.1,0-0.2-0.1-0.2c0-0.1-0.1-0.3-0.1-0.6c-0.1-0.8-0.3-1.1-0.5-1.1
	l-0.9,0.3l-0.2-0.8c0.4-0.1,0.7-0.2,0.8-0.4c0,0,0.1-0.1,0.1-0.2v0c-0.4-0.9-1.1-1.6-1.9-2.3c-0.8-0.7-1.6-1-2.4-1
	c-0.2,0-0.3,0.1-0.3,0.2l0,0.3c0,0.2-0.1,0.6-0.2,1.3c-0.2,0.7-0.2,1-0.2,1.1c0,0.2,0.2,0.4,0.7,0.6l-0.1,0.2
	c-0.4-0.2-0.6-0.3-0.8-0.3c-0.1,0-0.3,0.1-0.4,0.3c-0.1,0.2-0.2,0.3-0.2,0.5c0,0.1,0,0.2,0,0.3c0,0.2,0.2,0.3,0.4,0.3s0.5,0,0.6,0
	l0,0.1c-0.4,0-0.7,0.1-0.8,0.1c-0.1,0-0.2,0.1-0.2,0.2l-0.5,2.1l0,0.1l0.2,0.7l-0.2,1.1L173.4,28.6z"/>
</svg>
