<?xml version="1.0" encoding="UTF-8"?><svg id="Layer_1" xmlns="http://www.w3.org/2000/svg" viewBox="0 0 770 770"><defs><style>.cls-1{fill:#fff;}.cls-2{fill:#493c39;}</style></defs><rect class="cls-1" width="770" height="770" rx="12" ry="12"/><path class="cls-2" d="M402.5,303.33s0-119.58,84.58-137.08c84.58-17.5,119.58,32.08,119.58,32.08,0,0,52.5-5.83,78.75-26.25,0,0-21.68,45.84-47.3,60.84l64.8-14.17s-46.67,58.33-58.33,58.33c0,0,5.83,230.42-175,317.92-180.83,87.5-355.83-11.67-355.83-11.67,0,0,74.38,18.96,185.21-48.12,0,0-87.5,5.83-116.67-84.58,0,0,43.75,5.83,55.42,0,0,0-105-43.75-99.17-119.58,0,0,43.75,17.5,58.33,14.58,0,0-93.33-43.75-40.83-160.42,0,0,96.25,119.58,246.46,118.13Z"/></svg>